<?xml version="1.0" encoding="UTF-8" standalone="no"?>
<!DOCTYPE svg PUBLIC "-//W3C//DTD SVG 1.1//EN" "http://www.w3.org/Graphics/SVG/1.1/DTD/svg11.dtd">
<svg width="100%" height="100%" viewBox="0 0 670 470" version="1.1" xmlns="http://www.w3.org/2000/svg" xmlns:xlink="http://www.w3.org/1999/xlink" xml:space="preserve" xmlns:serif="http://www.serif.com/" style="fill-rule:evenodd;clip-rule:evenodd;stroke-linejoin:round;stroke-miterlimit:2;">
    <g transform="matrix(1,0,0,1,-177.012,-277.109)">
        <path d="M487.574,277.11C492.395,277.134 497.199,277.567 501.988,278.409C516.538,281.63 530.872,285.63 544.988,290.409C603.086,313.108 653.752,346.775 696.988,391.409C771.315,401.87 821.315,442.203 846.988,512.409C842.973,520.939 838.806,529.439 834.488,537.909C826.75,549.814 816.917,559.481 804.988,566.909C787.409,575.807 768.742,581.307 748.988,583.409C747.149,586.413 744.815,588.913 741.988,590.909C752.131,595.231 761.798,600.397 770.988,606.409C787.954,620.308 792.454,637.475 784.488,657.909C772.86,676.637 756.026,684.47 733.988,681.409C715.483,677.63 697.15,673.13 678.988,667.909C625.46,682.759 573.127,679.426 521.988,657.909C478.459,706.624 425.793,719.624 363.988,696.909C349.137,708.837 334.47,721.004 319.988,733.409C313.653,737.912 306.986,741.912 299.988,745.409C286.363,746.96 272.696,747.293 258.988,746.409C244.256,741.454 238.423,731.287 241.488,715.909C246.372,707.028 252.039,698.695 258.488,690.909C279.278,665.117 300.444,639.617 321.988,614.409C325.772,612.462 329.772,611.129 333.988,610.409C343.592,608.694 353.259,607.527 362.988,606.909C363.317,601.203 362.983,595.537 361.988,589.909C338.683,574.005 328.683,552.005 331.988,523.909C336.726,505.65 347.726,492.483 364.988,484.409C382.64,478.824 399.807,479.991 416.488,487.909C454.031,463.011 494.865,455.845 538.988,466.409C567.566,473.879 595.566,483.046 622.988,493.909L623.988,491.909C620.981,479.874 619.314,467.707 618.988,455.409C596.379,453.588 574.379,449.088 552.988,441.909C503.191,424.941 463.691,394.607 434.488,350.909C430.417,344.793 429.083,338.126 430.488,330.909C432.575,327.107 435.742,324.607 439.988,323.409C451.472,320.535 463.139,319.035 474.988,318.909C478.06,319.226 481.06,318.893 483.988,317.909C483.864,317.302 483.531,316.969 482.988,316.909C474.904,307.747 471.071,297.08 471.488,284.909C472.001,283.882 472.501,282.882 472.988,281.909C474.57,279.439 476.903,277.939 479.988,277.409C482.405,277.207 484.819,277.107 487.23,277.109L487.574,277.11ZM329.877,683.902C329.84,683.9 329.803,683.897 329.767,683.895L329.877,683.902L329.988,683.909C318.247,694.627 306.247,705.127 293.988,715.409C288.988,716.076 283.988,716.076 278.988,715.409C300.032,690.7 320.699,665.7 340.988,640.409C352.671,638.502 364.338,636.502 375.988,634.409C382.224,632.292 388.224,629.625 393.988,626.409C394.74,625.738 395.074,624.905 394.988,623.909L395.08,624.097C395.051,624.035 395.02,623.972 394.988,623.909C392.393,610.556 392.393,597.222 394.988,583.909L395.036,583.853L395.084,583.797L395.132,583.743C395.148,583.725 395.164,583.707 395.179,583.69C395.164,583.707 395.148,583.725 395.132,583.743L395.084,583.797L395.036,583.853L394.988,583.909C400.834,550.551 417.724,524.623 445.658,506.127L445.988,505.909C469.499,493.246 494.499,489.412 520.988,494.409C546.693,499.815 571.693,507.482 595.988,517.409C618.186,524.834 640.852,530.501 663.988,534.409C673.33,535.578 682.663,535.744 691.988,534.909C664.495,514.769 651.828,487.936 653.988,454.409C668.13,452.79 681.796,449.457 694.988,444.409C682.151,440.442 669.151,437.108 655.988,434.409C619.885,428.789 584.551,420.123 549.988,408.409C518.721,394.467 492.055,374.467 469.988,348.409C484.486,347.825 498.819,349.159 512.988,352.409C548.981,362.236 583.315,376.236 615.988,394.409C636.784,405.641 657.451,417.141 677.988,428.909C678.321,428.576 678.655,428.242 678.988,427.909C677.461,426.216 676.128,424.382 674.988,422.409C730.9,421.94 773.733,445.107 803.488,491.909C807.076,498.084 810.41,504.418 813.488,510.909C808.921,524.119 800.421,534.286 787.988,541.409C771.315,549.66 753.648,553.994 734.988,554.409C713.275,576.43 686.942,589.097 655.988,592.409C653.808,596.295 652.474,600.462 651.988,604.909C686.702,606.758 719.702,615.258 750.988,630.409C756.658,634.137 758.491,639.303 756.488,645.909C753.573,650.45 749.406,652.45 743.988,651.909C722.371,647.13 700.871,641.796 679.488,635.909C669.3,640.083 658.8,643.249 647.988,645.409C616.765,649.633 594.099,637.8 579.988,609.909C579.928,609.366 579.595,609.033 578.988,608.909C577.679,613.058 577.679,617.058 578.988,620.909L578.988,627.909C557.73,624.777 538.063,617.444 519.988,605.909C505.923,633.14 485.59,654.307 458.988,669.409C439.655,678.111 419.655,680.111 398.988,675.409C385.149,671.907 371.316,668.407 357.488,664.909C354.255,665.109 351.421,666.276 348.988,668.409C343.071,674.167 336.738,679.333 329.988,683.909C329.951,683.907 329.914,683.904 329.877,683.902L329.877,683.902ZM318.531,691.01C318.548,691.012 318.565,691.014 318.583,691.016C318.6,691.018 318.617,691.02 318.635,691.022L318.531,691.01ZM317.917,690.854L317.976,690.879C317.956,690.871 317.936,690.863 317.917,690.854L317.899,690.845L317.917,690.854ZM317.832,690.81L317.807,690.794L317.859,690.825C317.85,690.82 317.841,690.815 317.832,690.81ZM317.679,690.692L317.685,690.698L317.671,690.683L317.679,690.692ZM321.022,690.129L321.023,690.204C321.023,690.23 321.023,690.256 321.023,690.281L321.022,690.359L321.02,690.438L321.017,690.516L321.013,690.594L321.009,690.673C321.01,690.647 321.012,690.62 321.013,690.594L321.017,690.536L321.019,690.469L321.021,690.401L321.022,690.358C321.024,690.283 321.023,690.209 321.022,690.135L321.022,690.129C321.021,690.103 321.02,690.078 321.019,690.052L321.022,690.129ZM317.556,690.478C317.566,690.516 317.581,690.552 317.6,690.587C317.582,690.554 317.567,690.519 317.557,690.482L317.551,690.458L317.556,690.478ZM317.556,690.192L317.555,690.197L317.545,690.251C317.548,690.233 317.551,690.215 317.555,690.197L317.556,690.192C317.557,690.183 317.56,690.175 317.562,690.166L317.556,690.192ZM317.73,689.782L317.707,689.821L317.686,689.86L317.666,689.898L317.647,689.935L317.63,689.972L317.615,690.008L317.601,690.043L317.589,690.076L317.601,690.041L317.615,690.006L317.631,689.97L317.648,689.933L317.667,689.896L317.687,689.858L317.708,689.819L317.731,689.78L317.753,689.745L317.73,689.782ZM320.939,689.329C320.941,689.344 320.944,689.358 320.947,689.373C320.949,689.387 320.952,689.402 320.954,689.417C320.949,689.387 320.944,689.358 320.939,689.329ZM318.294,689.07L318.267,689.099L318.335,689.027L318.294,689.07ZM320.72,688.56C320.749,688.635 320.777,688.712 320.802,688.79C320.827,688.868 320.85,688.946 320.871,689.026C320.829,688.867 320.779,688.711 320.72,688.56ZM318.473,688.887C318.446,688.915 318.418,688.942 318.392,688.969C318.417,688.943 318.443,688.917 318.469,688.891L318.473,688.887C318.503,688.858 318.533,688.828 318.564,688.799L318.473,688.887ZM318.894,688.167L318.939,688.286C318.924,688.246 318.909,688.207 318.894,688.167L318.892,688.163L318.851,688.055L318.894,688.167ZM319.926,687.255L319.871,687.194L319.926,687.255L319.972,687.309L319.979,687.318L319.995,687.336L320.018,687.364L320.031,687.381L320.046,687.399L320.063,687.419L320.072,687.431L320.082,687.444L320.094,687.46L320.106,687.475L320.119,687.491L320.131,687.508L320.141,687.52L320.149,687.532L320.165,687.553L320.18,687.573L320.191,687.589L320.212,687.617L320.226,687.638L320.229,687.642C320.244,687.663 320.258,687.683 320.272,687.704L320.229,687.642L320.212,687.617L320.186,687.581L320.165,687.553L320.141,687.52L320.119,687.491L320.094,687.46L320.072,687.431L320.046,687.399L320.024,687.372L319.995,687.336L319.975,687.313L319.926,687.255ZM319.524,686.844C319.462,686.788 319.399,686.732 319.333,686.678C319.377,686.714 319.419,686.751 319.461,686.788C319.482,686.807 319.503,686.825 319.524,686.844C319.544,686.863 319.564,686.882 319.584,686.901L319.524,686.844ZM321.634,686.57C321.626,686.587 321.618,686.605 321.61,686.623C321.602,686.641 321.594,686.659 321.586,686.677L321.634,686.57ZM319.266,686.622C319.243,686.604 319.221,686.586 319.198,686.568C319.175,686.55 319.152,686.532 319.129,686.515L319.266,686.622ZM318.249,685.994C318.269,686.092 318.29,686.19 318.313,686.289C318.336,686.387 318.361,686.487 318.387,686.587C318.335,686.387 318.289,686.189 318.249,685.994ZM319.125,686.325L319.113,686.332L319.084,686.35L319.072,686.357L319.032,686.381C319.045,686.373 319.059,686.365 319.072,686.357L319.098,686.341L319.125,686.325C319.138,686.318 319.151,686.31 319.164,686.303L319.125,686.325ZM320.855,686.293L320.872,686.305L320.832,686.279L320.855,686.293ZM319.208,686.279L319.182,686.293L319.246,686.259L319.208,686.279ZM319.295,686.235L319.338,686.215C319.309,686.228 319.28,686.242 319.251,686.256L319.295,686.235ZM320.517,686.125C320.565,686.141 320.611,686.161 320.658,686.183C320.704,686.205 320.75,686.229 320.795,686.256C320.704,686.202 320.612,686.158 320.517,686.125ZM321.833,686.156C321.847,686.129 321.861,686.102 321.875,686.075C321.847,686.129 321.819,686.183 321.792,686.238L321.833,686.156ZM319.618,686.11L319.678,686.093C319.658,686.099 319.638,686.104 319.618,686.11ZM319.924,686.051C320.038,686.04 320.151,686.044 320.261,686.06C320.151,686.044 320.038,686.041 319.924,686.051L319.894,686.054L319.879,686.056L319.843,686.06C319.855,686.059 319.867,686.057 319.879,686.056L319.908,686.052L319.924,686.051ZM318.187,685.676L318.151,685.464C318.163,685.535 318.175,685.605 318.187,685.676ZM322.494,685.056L322.542,684.988C322.526,685.01 322.51,685.033 322.494,685.056L322.489,685.062C322.463,685.1 322.437,685.138 322.411,685.177L322.379,685.225L322.343,685.279L322.307,685.334L322.271,685.389L322.241,685.438C322.228,685.459 322.215,685.48 322.202,685.501L322.241,685.438L322.281,685.375L322.289,685.363L322.321,685.312L322.329,685.3L322.363,685.248L322.37,685.238L322.411,685.177L322.454,685.114L322.494,685.056ZM318.082,684.945L318.068,684.801C318.072,684.849 318.077,684.897 318.082,684.945ZM322.92,684.492L322.882,684.538L322.846,684.583L322.887,684.531L322.916,684.496L322.929,684.48L322.988,684.409L322.92,684.492ZM318.037,684.368C318.035,684.324 318.033,684.281 318.032,684.239C318.034,684.317 318.038,684.396 318.043,684.475L318.037,684.368ZM323.313,684.342C323.24,684.356 323.168,684.371 323.096,684.386L323.421,684.32L323.313,684.342ZM325.8,683.969L325.674,683.982C325.716,683.977 325.758,683.973 325.8,683.969L325.814,683.967L325.924,683.957L325.8,683.969ZM326.251,683.928C326.324,683.923 326.397,683.917 326.47,683.912L326.142,683.937L326.251,683.928ZM327.2,683.871L327.182,683.871L327.164,683.872C327.115,683.874 327.066,683.876 327.017,683.879L327.164,683.872L327.2,683.871L327.346,683.865L327.456,683.861C327.37,683.864 327.285,683.867 327.2,683.871ZM328.664,683.852C328.725,683.853 328.786,683.855 328.846,683.856C328.907,683.858 328.967,683.859 329.028,683.861C328.907,683.857 328.785,683.854 328.664,683.852ZM328.005,683.85C327.972,683.85 327.939,683.851 327.906,683.851C327.872,683.852 327.839,683.852 327.806,683.853L328.005,683.85ZM328.334,683.849L328.444,683.85C328.371,683.849 328.298,683.849 328.224,683.849L328.334,683.849ZM318.103,682.795L318.096,682.847C318.055,683.16 318.032,683.479 318.027,683.805C318.032,683.479 318.054,683.16 318.096,682.847L318.1,682.811L318.103,682.795C318.106,682.767 318.111,682.739 318.115,682.711L318.103,682.795ZM318.205,682.217C318.196,682.257 318.188,682.297 318.18,682.337C318.172,682.377 318.164,682.417 318.157,682.457C318.172,682.376 318.188,682.297 318.205,682.217ZM318.48,681.266L318.47,681.295L318.499,681.215L318.48,681.266ZM318.736,680.65L318.733,680.658C318.708,680.711 318.684,680.764 318.66,680.817C318.627,680.892 318.595,680.967 318.565,681.043C318.617,680.913 318.673,680.785 318.733,680.658L318.736,680.65C318.745,680.632 318.754,680.613 318.763,680.595L318.736,680.65ZM319.043,680.067L319.128,679.926C319.099,679.973 319.071,680.02 319.043,680.067ZM319.235,679.755L319.224,679.772L319.241,679.746L319.235,679.755ZM319.782,679.011L319.849,678.93L319.652,679.173C319.695,679.118 319.738,679.064 319.782,679.011ZM320.67,678.076L320.614,678.128L320.709,678.04L320.67,678.076ZM321.878,677.11L322.034,677.003C321.981,677.039 321.929,677.074 321.878,677.11ZM323.881,675.631L323.794,675.709L323.95,675.569L323.881,675.631ZM324.461,675.099L324.327,675.224L324.578,674.989L324.461,675.099ZM325.555,674.03L325.442,674.143L325.435,674.151L325.329,674.258L325.322,674.264L325.21,674.376L325.095,674.49C325.056,674.528 325.018,674.565 324.979,674.603L324.873,674.706L324.745,674.829C324.788,674.788 324.831,674.747 324.873,674.706L324.887,674.693C324.995,674.588 325.103,674.482 325.21,674.376L325.28,674.307L325.377,674.209L325.474,674.112L325.555,674.03C325.592,673.992 325.629,673.954 325.666,673.915L325.555,674.03ZM326.953,672.522C326.888,672.596 326.823,672.669 326.758,672.742C326.693,672.815 326.628,672.888 326.562,672.961C326.693,672.816 326.824,672.669 326.953,672.522ZM328.166,671.061L328.265,670.934C328.232,670.976 328.199,671.019 328.166,671.061L328.146,671.087L328.113,671.128L328.095,671.151L328.073,671.178L328.035,671.227L328.015,671.251C327.984,671.29 327.954,671.328 327.923,671.367L328.015,671.251L328.073,671.178L328.113,671.128L328.166,671.061ZM330.277,668.077C330.243,668.132 330.208,668.186 330.173,668.241L330.381,667.912L330.277,668.077ZM330.988,666.909L330.847,667.148C330.894,667.069 330.941,666.989 330.988,666.909ZM331.344,666.57L331.184,666.712C331.237,666.663 331.29,666.615 331.344,666.57L331.346,666.568L331.387,666.535L331.344,666.57ZM331.512,666.438C331.484,666.459 331.456,666.48 331.429,666.502L331.554,666.407L331.512,666.438ZM331.945,666.168C331.912,666.185 331.879,666.203 331.846,666.222C331.813,666.24 331.78,666.259 331.748,666.279L331.945,666.168ZM332.171,666.064C332.15,666.072 332.13,666.081 332.11,666.09C332.089,666.099 332.069,666.108 332.049,666.118C332.089,666.099 332.13,666.081 332.171,666.064ZM332.437,665.97C332.415,665.976 332.394,665.983 332.373,665.99C332.352,665.996 332.331,666.004 332.31,666.011C332.352,665.996 332.394,665.982 332.437,665.97ZM332.546,665.939L332.502,665.951L332.564,665.935L332.546,665.939ZM332.594,665.927L332.691,665.905C332.658,665.912 332.626,665.919 332.594,665.927ZM187.988,640.909C201.395,640.465 214.728,640.965 227.988,642.409C234.941,645.376 237.441,650.542 235.488,657.909C233.498,661.899 230.331,664.399 225.988,665.409C212.655,666.076 199.321,666.076 185.988,665.409C178.019,661.51 175.519,655.343 178.488,646.909C181.039,643.728 184.206,641.728 187.988,640.909ZM332.879,665.873L332.838,665.879C332.852,665.877 332.865,665.875 332.879,665.873L332.888,665.872L332.906,665.87L332.879,665.873ZM333.662,665.862C333.626,665.859 333.591,665.856 333.555,665.853L333.715,665.868L333.662,665.862ZM333.981,665.852L333.961,665.682C333.967,665.739 333.974,665.795 333.981,665.852ZM333.927,665.343C333.934,665.418 333.941,665.494 333.949,665.569L333.918,665.23L333.927,665.343ZM333.978,662.556L333.97,662.623L333.968,662.636L333.962,662.693L333.952,662.78C333.955,662.751 333.958,662.722 333.962,662.693L333.964,662.67L333.976,662.576L333.988,662.481L333.978,662.556ZM334.013,662.298L334.04,662.123C334.031,662.181 334.022,662.24 334.013,662.298ZM334.186,661.363C334.164,661.461 334.143,661.56 334.123,661.658C334.104,661.757 334.085,661.856 334.068,661.955C334.103,661.757 334.142,661.559 334.186,661.363ZM334.44,660.394L334.417,660.471L334.461,660.327L334.44,660.394ZM334.554,660.038L334.615,659.861C334.594,659.92 334.574,659.979 334.554,660.038ZM334.691,659.649C334.704,659.613 334.717,659.578 334.731,659.543L334.652,659.755L334.691,659.649ZM334.816,659.323C334.808,659.342 334.801,659.361 334.793,659.38C334.786,659.399 334.778,659.418 334.771,659.437L334.816,659.323ZM335.655,658.602L335.568,658.644L335.734,658.563L335.655,658.602ZM336.723,658.034L336.824,657.975L336.737,658.025L336.657,658.072L336.576,658.118L336.515,658.152C336.481,658.171 336.447,658.19 336.413,658.209L336.515,658.152L336.617,658.095L336.623,658.091L336.723,658.034ZM337.841,657.316L337.945,657.242C337.91,657.266 337.876,657.291 337.841,657.316L337.825,657.328C337.793,657.35 337.761,657.372 337.729,657.394L337.714,657.405L337.704,657.412C337.673,657.433 337.643,657.454 337.612,657.475L337.597,657.485L337.583,657.494C337.553,657.515 337.522,657.535 337.492,657.556L337.479,657.564L337.462,657.575C337.431,657.596 337.4,657.616 337.369,657.636L337.36,657.642L337.343,657.653L337.308,657.676L337.24,657.72L337.227,657.728L337.177,657.759L337.131,657.788L337.113,657.799C337.078,657.821 337.043,657.842 337.008,657.864L336.986,657.877C336.961,657.893 336.935,657.908 336.91,657.923L336.986,657.877L337.008,657.864L337.113,657.799L337.131,657.788L337.227,657.728L337.248,657.714L337.343,657.653L337.369,657.636L337.462,657.575L337.492,657.556L337.583,657.494L337.612,657.475L337.704,657.412L337.729,657.394L337.825,657.328L337.841,657.316ZM339.053,656.351C338.889,656.499 338.72,656.642 338.546,656.782C338.373,656.923 338.195,657.059 338.013,657.192C338.377,656.926 338.724,656.646 339.053,656.351ZM339.656,655.777L339.714,655.717C339.695,655.737 339.675,655.757 339.656,655.777L339.646,655.787C339.536,655.898 339.424,656.008 339.31,656.116L339.646,655.787L339.656,655.777ZM340.036,655.373C340.057,655.35 340.078,655.327 340.099,655.303L339.973,655.443L340.036,655.373ZM340.506,654.822C340.488,654.845 340.469,654.867 340.451,654.89C340.432,654.913 340.414,654.936 340.395,654.958C340.432,654.913 340.469,654.867 340.506,654.822ZM340.866,654.352L340.81,654.428L340.921,654.276L340.866,654.352ZM341.683,653.081C341.699,653.053 341.714,653.025 341.73,652.998C341.745,652.97 341.761,652.942 341.776,652.914L341.683,653.081ZM342.4,651.607L342.377,651.661L342.428,651.538L342.4,651.607ZM342.769,650.62C342.723,650.757 342.675,650.893 342.626,651.027C342.577,651.161 342.526,651.294 342.474,651.426C342.579,651.163 342.677,650.894 342.769,650.62ZM342.863,650.327L342.902,650.202L342.872,650.299L342.861,650.335L342.858,650.345C342.845,650.386 342.832,650.427 342.819,650.468L342.858,650.345L342.863,650.327ZM349.305,646.923L349.088,646.921C349.159,646.922 349.231,646.923 349.305,646.923ZM349.871,646.913L349.988,646.909C349.948,646.911 349.909,646.912 349.871,646.913L349.755,646.917L349.871,646.913ZM347.845,646.844C347.912,646.852 347.979,646.859 348.048,646.866C348.117,646.873 348.187,646.879 348.258,646.885C348.116,646.874 347.978,646.86 347.845,646.844ZM347.453,646.788L347.298,646.76C347.349,646.77 347.401,646.779 347.453,646.788ZM346.813,646.648L346.864,646.661L346.834,646.653L346.762,646.633L346.813,646.648ZM345.831,646.235L345.856,646.251L345.888,646.27L345.92,646.288L345.952,646.307L345.985,646.325L346.02,646.343L346.052,646.359L346.086,646.376L346.12,646.393L346.155,646.41L346.171,646.417L346.191,646.426L346.207,646.433L346.244,646.449L346.28,646.465L346.317,646.48L346.355,646.495L346.316,646.48L346.276,646.463L346.238,646.447L346.2,646.43L346.163,646.413L346.126,646.396L346.082,646.375L346.05,646.359L346.017,646.341L345.983,646.324L345.949,646.305L345.915,646.286L345.895,646.274L345.865,646.257L345.836,646.239L345.831,646.235C345.815,646.226 345.8,646.216 345.785,646.207L345.831,646.235ZM345.335,645.826C345.308,645.796 345.282,645.765 345.257,645.733C345.282,645.765 345.308,645.796 345.335,645.826C345.377,645.872 345.421,645.917 345.468,645.961C345.545,646.033 345.63,646.101 345.723,646.164C345.574,646.062 345.445,645.949 345.335,645.826ZM345.198,645.653L345.155,645.59C345.169,645.611 345.183,645.632 345.198,645.653ZM344.946,645.136C344.957,645.173 344.97,645.21 344.983,645.246C344.997,645.282 345.011,645.318 345.027,645.353C344.996,645.283 344.969,645.211 344.946,645.136ZM344.887,644.057L344.878,644.124L344.87,644.191L344.869,644.202L344.864,644.256L344.863,644.268L344.86,644.321L344.859,644.332L344.857,644.385L344.856,644.421L344.855,644.444L344.855,644.484L344.855,644.505L344.855,644.526L344.855,644.547L344.857,644.586L344.857,644.609L344.86,644.645L344.862,644.676L344.864,644.704L344.866,644.728L344.87,644.763L344.872,644.784L344.877,644.821L344.88,644.839L344.886,644.878L344.888,644.892L344.896,644.934L344.898,644.943L344.907,644.99C344.904,644.974 344.901,644.958 344.898,644.943L344.896,644.934C344.893,644.92 344.891,644.906 344.888,644.892L344.886,644.878L344.878,644.829L344.871,644.773L344.865,644.718L344.863,644.7L344.86,644.661L344.859,644.639L344.857,644.604L344.856,644.578L344.855,644.545L344.855,644.516L344.855,644.487L344.855,644.453L344.855,644.427L344.856,644.389L344.857,644.367L344.86,644.324L344.861,644.306L344.864,644.259L344.865,644.244L344.87,644.193L344.871,644.182L344.878,644.119L344.887,644.055L344.897,643.99L344.887,644.057ZM345.241,642.841L345.211,642.915L345.196,642.953L345.182,642.988L345.166,643.03L345.154,643.061L345.138,643.104L345.127,643.133L345.112,643.177L345.102,643.206L345.087,643.248L345.076,643.28L345.064,643.318L345.042,643.387C345.049,643.364 345.056,643.341 345.064,643.318L345.066,643.312L345.076,643.28L345.085,643.254L345.091,643.236L345.102,643.206L345.108,643.186L345.118,643.159L345.127,643.133L345.133,643.118L345.138,643.104L345.146,643.081L345.158,643.05L345.166,643.03L345.176,643.002L345.185,642.98L345.196,642.953L345.208,642.923L345.213,642.91L345.242,642.839L345.275,642.761L345.241,642.841ZM345.501,642.277L345.481,642.318L345.533,642.215L345.501,642.277ZM345.874,641.598L345.819,641.693C345.782,641.756 345.747,641.818 345.712,641.88C345.759,641.797 345.807,641.712 345.857,641.627L345.874,641.598C345.893,641.566 345.912,641.534 345.931,641.502L345.874,641.598ZM346.292,641.387L346.269,641.389L346.44,641.377L346.292,641.387ZM365.027,641.345C365.19,641.355 365.354,641.366 365.518,641.377C365.248,641.359 364.978,641.341 364.707,641.324L365.027,641.345ZM348.431,641.251C348.256,641.261 348.082,641.271 347.907,641.281C347.733,641.291 347.559,641.302 347.385,641.313L348.431,641.251ZM362.643,641.211C362.827,641.22 363.011,641.229 363.196,641.239C363.38,641.248 363.565,641.258 363.749,641.268C363.38,641.248 363.011,641.229 362.643,641.211ZM362.163,641.189C362.109,641.186 362.056,641.184 362.002,641.182C361.948,641.179 361.895,641.177 361.841,641.175L362.163,641.189ZM359.407,641.092C359.759,641.101 360.111,641.112 360.464,641.123C360.817,641.135 361.17,641.148 361.524,641.162C360.816,641.133 360.111,641.11 359.407,641.092ZM352.435,641.09L352.201,641.096L352.702,641.084L352.435,641.09ZM358.995,641.083L359.102,641.085L358.755,641.077L358.995,641.083ZM357.222,641.054C357.08,641.052 356.938,641.051 356.796,641.05L357.11,641.053L357.222,641.054L357.364,641.055L357.427,641.056L357.521,641.057L357.598,641.058C357.709,641.06 357.821,641.061 357.933,641.063L357.598,641.058L357.427,641.056L357.222,641.054ZM367.481,640.654L367.891,640.456C367.754,640.522 367.617,640.588 367.481,640.654ZM370.553,639.27C370.437,639.318 370.321,639.366 370.205,639.415C370.089,639.464 369.974,639.513 369.859,639.563L370.553,639.27ZM374.769,637.718C374.504,637.804 374.238,637.892 373.974,637.981C373.709,638.071 373.445,638.163 373.182,638.257C373.708,638.069 374.237,637.89 374.769,637.718ZM375.021,637.637L374.85,637.692L375.274,637.558L375.021,637.637ZM379.975,636.313L380.412,636.219C380.266,636.25 380.121,636.281 379.975,636.313ZM381.461,636.008L381.988,635.909C381.811,635.941 381.636,635.974 381.461,636.008ZM382.181,632.886C382.245,632.878 382.31,632.87 382.374,632.862L381.988,632.909L382.181,632.886ZM382.759,632.811C382.695,632.82 382.631,632.829 382.566,632.837L382.951,632.785L382.759,632.811ZM385.448,632.372L385.627,632.337C385.567,632.349 385.508,632.361 385.448,632.372L385.437,632.374L385.299,632.4L385.136,632.431L385.064,632.444L384.972,632.461L384.912,632.472L384.877,632.478L384.808,632.491L384.763,632.499L384.736,632.503L384.699,632.51L384.644,632.52L384.596,632.528L384.54,632.538L384.479,632.548L384.464,632.551C384.414,632.559 384.365,632.568 384.315,632.576L384.464,632.551L384.54,632.538L384.613,632.525L384.699,632.51L384.763,632.499L384.852,632.483L384.912,632.472L385.003,632.455L385.064,632.444L385.153,632.428L385.297,632.401L385.448,632.372ZM386.712,632.112C386.653,632.125 386.594,632.138 386.534,632.151C386.475,632.163 386.416,632.176 386.356,632.189C386.475,632.164 386.594,632.138 386.712,632.112ZM387.676,631.89L387.892,631.838L387.704,631.883L387.676,631.89L387.656,631.895L387.611,631.906L387.515,631.929L387.457,631.942L387.42,631.951L387.384,631.959L387.326,631.973L387.23,631.995L387.184,632.006L387.164,632.01C387.092,632.027 387.02,632.043 386.948,632.06L387.164,632.01L387.23,631.995L387.384,631.959L387.457,631.942L387.611,631.906L387.676,631.89ZM389.387,631.445L389.203,631.496L389.573,631.392L389.387,631.445ZM390.316,631.175L389.759,631.339C390.007,631.268 390.255,631.194 390.502,631.119L390.316,631.175ZM392.911,630.314L393.076,630.254C393.021,630.274 392.966,630.294 392.911,630.314L392.894,630.32L392.844,630.338L392.757,630.37L392.713,630.385L392.665,630.403L392.628,630.416C392.564,630.439 392.5,630.461 392.436,630.483L392.628,630.416L392.713,630.385L392.844,630.338L392.911,630.314ZM394.163,629.697L394.217,629.629C394.199,629.651 394.181,629.674 394.163,629.697L394.143,629.722C394.108,629.765 394.072,629.809 394.036,629.852C394.079,629.8 394.122,629.748 394.163,629.697ZM394.496,629.254C394.452,629.316 394.407,629.379 394.361,629.441L394.56,629.16L394.496,629.254ZM395.54,626.71C395.556,626.581 395.566,626.453 395.57,626.324C395.567,626.417 395.561,626.511 395.552,626.605C395.548,626.64 395.544,626.675 395.54,626.71C395.533,626.769 395.525,626.828 395.515,626.887C395.525,626.828 395.533,626.769 395.54,626.71ZM395.57,626.036C395.571,626.061 395.572,626.085 395.572,626.11C395.572,626.134 395.572,626.159 395.572,626.183C395.572,626.134 395.572,626.085 395.57,626.036ZM395.557,625.805C395.559,625.834 395.561,625.863 395.563,625.893C395.565,625.922 395.567,625.951 395.568,625.98C395.565,625.922 395.562,625.863 395.557,625.805ZM395.458,625.177C395.475,625.251 395.49,625.325 395.504,625.4C395.517,625.474 395.528,625.549 395.537,625.623C395.519,625.474 395.492,625.325 395.458,625.177ZM395.385,624.895L395.392,624.92L395.374,624.856L395.385,624.895ZM395.204,624.379L395.299,624.626C395.269,624.543 395.238,624.461 395.204,624.379ZM185.988,591.909C209.324,591.742 232.657,591.909 255.988,592.409C263.354,594.967 266.187,600.134 264.488,607.909C262.377,612.353 258.877,614.853 253.988,615.409C231.321,616.076 208.655,616.076 185.988,615.409C178.117,611.263 175.951,605.097 179.488,596.909C181.453,594.859 183.62,593.192 185.988,591.909ZM397.994,585.753L397.998,585.629L397.995,585.73L397.994,585.753C397.992,585.804 397.99,585.857 397.988,585.909L397.994,585.753ZM397.839,583.354C397.845,583.376 397.85,583.399 397.855,583.421C397.846,583.382 397.837,583.344 397.827,583.308L397.839,583.354ZM397.73,583.013C397.741,583.039 397.75,583.064 397.76,583.091C397.77,583.118 397.779,583.145 397.788,583.174C397.77,583.117 397.751,583.064 397.73,583.013ZM396.462,582.567C396.43,582.584 396.397,582.604 396.363,582.624C396.329,582.645 396.295,582.667 396.26,582.691C396.329,582.644 396.397,582.602 396.462,582.567ZM397.452,582.576L397.521,582.65C397.499,582.623 397.476,582.599 397.452,582.576ZM396.756,582.441C396.71,582.455 396.663,582.472 396.615,582.492C396.567,582.513 396.518,582.537 396.467,582.564L396.756,582.441ZM397.24,582.441L397.314,582.476C397.282,582.458 397.249,582.443 397.214,582.432L397.24,582.441ZM396.957,582.403L396.992,582.401C396.98,582.401 396.969,582.402 396.957,582.403ZM406.605,569.906C406.573,569.905 406.542,569.904 406.512,569.902L406.699,569.909L406.605,569.906ZM405.635,569.769L405.649,569.773L405.808,569.81C405.754,569.799 405.701,569.786 405.649,569.773L405.635,569.769C405.61,569.763 405.586,569.757 405.562,569.75L405.635,569.769ZM405.326,569.676C405.275,569.658 405.225,569.639 405.175,569.619L405.404,569.702L405.326,569.676ZM404.274,569.08C404.295,569.098 404.317,569.116 404.34,569.134C404.362,569.152 404.384,569.169 404.407,569.187C404.361,569.152 404.317,569.117 404.274,569.08ZM403.897,568.706L403.904,568.714L404.122,568.943C404.046,568.871 403.973,568.795 403.904,568.714L403.897,568.706C403.882,568.688 403.866,568.67 403.851,568.651L403.897,568.706ZM403.607,568.321C403.546,568.227 403.488,568.13 403.433,568.029L403.654,568.39L403.607,568.321ZM403.134,567.362L403.145,567.392L403.157,567.426L403.17,567.458L403.183,567.491L403.195,567.523L403.209,567.555L403.222,567.587L403.235,567.618L403.249,567.65L403.262,567.681L403.276,567.712L403.29,567.742L403.304,567.774L403.317,567.801L403.352,567.873C403.34,567.85 403.329,567.825 403.317,567.801L403.313,567.793L403.304,567.774L403.295,567.753L403.285,567.732L403.276,567.712L403.267,567.691L403.258,567.671L403.249,567.65L403.239,567.629L403.231,567.608L403.222,567.587L403.213,567.566L403.204,567.544L403.195,567.523L403.187,567.501L403.178,567.48L403.17,567.458L403.161,567.436L403.153,567.415L403.145,567.392L403.137,567.371L403.134,567.362C403.124,567.335 403.114,567.308 403.105,567.281L403.134,567.362ZM403.394,566.621C403.326,566.672 403.257,566.723 403.187,566.772C403.284,566.703 403.379,566.633 403.472,566.561L403.394,566.621ZM404.128,565.983L404.186,565.925C404.167,565.944 404.147,565.964 404.128,565.983L404.12,565.991L404.107,566.004L404.088,566.023L404.068,566.043L404.054,566.056L404.046,566.064C404.026,566.083 404.006,566.102 403.987,566.12L404.046,566.064L404.068,566.043L404.107,566.004L404.128,565.983ZM404.792,565.206C404.764,565.246 404.735,565.285 404.706,565.323C404.676,565.362 404.647,565.4 404.616,565.438C404.677,565.362 404.736,565.285 404.792,565.206ZM405.086,564.761C405.102,564.735 405.117,564.71 405.132,564.684C405.147,564.658 405.162,564.632 405.177,564.605L405.086,564.761ZM405.264,564.445C405.249,564.472 405.235,564.499 405.221,564.526L405.305,564.364L405.264,564.445ZM405.708,563.352C405.671,563.476 405.63,563.598 405.585,563.718C405.541,563.838 405.493,563.956 405.442,564.073C405.544,563.84 405.633,563.6 405.708,563.352ZM185.988,539.909C217.323,539.742 248.656,539.909 279.988,540.409C291.086,545.375 292.753,552.375 284.988,561.409C283.401,562.271 281.734,562.938 279.988,563.409C248.321,564.076 216.655,564.076 184.988,563.409C174.051,554.975 174.384,547.142 185.988,539.909ZM405.815,562.961C405.829,562.902 405.842,562.843 405.855,562.783L405.834,562.877C405.828,562.905 405.821,562.933 405.815,562.961L405.812,562.97L405.808,562.986L405.801,563.016L405.793,563.047L405.789,563.062L405.787,563.072C405.78,563.099 405.773,563.127 405.765,563.154L405.787,563.072L405.793,563.047L405.808,562.986L405.815,562.961ZM410.175,562.907L410.115,562.908L410.204,562.906L410.175,562.907ZM409.675,562.903C409.691,562.904 409.707,562.904 409.723,562.905C409.739,562.905 409.755,562.906 409.771,562.906C409.739,562.905 409.707,562.904 409.675,562.903ZM410.412,562.898L410.488,562.894L410.425,562.897L410.412,562.898C410.375,562.9 410.338,562.902 410.3,562.903L410.412,562.898ZM410.613,562.885C410.633,562.883 410.654,562.881 410.675,562.88L410.55,562.889L410.613,562.885ZM410.863,562.861C410.883,562.859 410.904,562.857 410.925,562.854L410.8,562.868L410.863,562.861ZM408.57,562.783C408.606,562.79 408.643,562.796 408.68,562.802C408.717,562.808 408.754,562.814 408.791,562.82C408.717,562.809 408.643,562.796 408.57,562.783ZM411.613,562.744C411.578,562.751 411.544,562.758 411.509,562.764C411.475,562.771 411.44,562.777 411.406,562.783C411.475,562.771 411.544,562.758 411.613,562.744ZM411.867,562.688C411.887,562.684 411.907,562.679 411.927,562.674C411.947,562.669 411.967,562.664 411.988,562.659L411.867,562.688ZM407.856,562.625C407.874,562.63 407.893,562.635 407.911,562.64C407.929,562.644 407.947,562.649 407.966,562.654C407.929,562.644 407.893,562.635 407.856,562.625ZM412.175,562.61L412.119,562.625L412.201,562.603L412.175,562.61ZM407.675,562.575C407.695,562.581 407.715,562.586 407.734,562.592C407.754,562.597 407.773,562.603 407.793,562.608C407.754,562.597 407.715,562.586 407.675,562.575ZM407.363,562.479L407.238,562.437C407.321,562.465 407.404,562.493 407.488,562.519L407.363,562.479ZM412.738,562.437L412.863,562.393C412.821,562.408 412.779,562.422 412.738,562.437ZM406.483,562.142L406.238,562.03C406.319,562.069 406.401,562.106 406.483,562.142ZM413.947,561.386C413.95,561.44 413.954,561.495 413.958,561.549C413.963,561.604 413.967,561.659 413.971,561.713L413.947,561.386ZM413.888,560.287L413.89,560.328L413.893,560.409L413.895,560.455L413.898,560.531L413.9,560.578L413.904,560.659L413.906,560.699L413.912,560.821L413.918,560.94L413.921,560.98L413.925,561.054L413.935,561.211C413.931,561.159 413.928,561.107 413.925,561.054L413.924,561.037L413.919,560.95L413.918,560.928L413.912,560.816L413.906,560.711L413.901,560.602L413.899,560.558L413.896,560.493L413.894,560.428L413.892,560.385L413.889,560.297L413.888,560.287C413.887,560.247 413.886,560.207 413.884,560.167L413.888,560.287ZM413.872,559.601L413.873,559.678L413.874,559.772L413.876,559.843L413.879,559.993C413.878,559.943 413.877,559.893 413.876,559.843L413.875,559.82L413.874,559.772L413.873,559.718L413.873,559.678L413.872,559.631L413.872,559.601C413.871,559.549 413.87,559.496 413.87,559.443L413.872,559.601ZM413.894,557.915C413.892,557.959 413.89,558.003 413.889,558.046C413.887,558.09 413.886,558.134 413.884,558.178L413.894,557.915ZM379.988,510.909C384.539,510.462 388.872,511.128 392.988,512.909C382.983,525.916 375.316,540.249 369.988,555.909C362.977,547.536 360.477,537.87 362.488,526.909C365.964,518.931 371.797,513.597 379.988,510.909ZM414.107,555.335C414.095,555.431 414.083,555.526 414.072,555.622C414.061,555.718 414.051,555.814 414.041,555.909C414.061,555.718 414.083,555.526 414.107,555.335ZM414.5,552.945L414.536,552.775C414.508,552.908 414.48,553.042 414.454,553.175C414.469,553.099 414.485,553.022 414.5,552.945ZM414.768,551.756L414.81,551.586C414.778,551.712 414.748,551.838 414.718,551.963C414.734,551.894 414.751,551.825 414.768,551.756ZM415.006,550.902L415.215,550.817C415.146,550.845 415.076,550.873 415.006,550.902ZM415.554,550.686C415.479,550.715 415.404,550.743 415.328,550.773L415.666,550.645L415.554,550.686ZM416.002,550.526L415.952,550.543L416.106,550.491L416.002,550.526ZM417.747,550.042C417.691,550.054 417.634,550.066 417.577,550.079C417.52,550.091 417.463,550.105 417.405,550.118C417.52,550.091 417.634,550.066 417.747,550.042ZM418.488,549.909C418.438,549.917 418.388,549.924 418.338,549.933C418.287,549.941 418.237,549.949 418.187,549.958L418.488,549.909ZM418.646,549.456L418.669,549.382C418.661,549.406 418.654,549.431 418.646,549.456L418.643,549.463L418.624,549.524L418.617,549.545L418.612,549.558C418.6,549.594 418.588,549.63 418.576,549.666L418.612,549.558L418.621,549.533L418.633,549.494L418.646,549.456ZM418.779,548.994C418.766,549.042 418.753,549.091 418.74,549.139C418.726,549.188 418.713,549.236 418.698,549.285C418.727,549.188 418.754,549.091 418.779,548.994ZM419.007,547.698L419.013,547.626L419.008,547.689L419.002,547.747L418.996,547.805L418.991,547.849C418.988,547.873 418.985,547.897 418.983,547.921L418.991,547.849L418.999,547.778L419,547.769L419.007,547.698ZM419.035,547.299L419.039,547.215C419.038,547.243 419.037,547.271 419.035,547.299L419.032,547.358L419.028,547.429L419.025,547.476L419.023,547.5L419.019,547.563L419.025,547.483L419.026,547.466L419.03,547.397L419.031,547.383L419.035,547.309L419.035,547.299ZM419.044,547.033C419.044,547.017 419.044,547 419.044,546.983C419.044,546.966 419.045,546.949 419.045,546.932L419.044,547.033ZM419.022,546.282L419.015,546.192C419.018,546.222 419.02,546.252 419.022,546.282L419.023,546.295L419.028,546.358L419.022,546.282ZM419.438,545.949C419.508,545.954 419.577,545.957 419.645,545.96C419.714,545.963 419.783,545.964 419.852,545.965C419.714,545.963 419.577,545.958 419.438,545.949ZM420.327,545.959L420.265,545.962L420.339,545.959L420.327,545.959ZM421.736,545.78L421.578,545.812C421.631,545.802 421.683,545.791 421.736,545.78ZM424.063,544.213L423.971,544.32L424.117,544.149L424.063,544.213ZM425.688,542.117C425.721,542.069 425.755,542.02 425.788,541.972C425.822,541.924 425.855,541.876 425.888,541.828L425.688,542.117ZM426.085,541.536L425.987,541.682L426.373,541.095C426.279,541.243 426.183,541.39 426.085,541.536ZM427.534,539.108L427.607,538.97L427.688,538.814C427.661,538.867 427.633,538.921 427.605,538.974L427.546,539.087L427.525,539.125L427.51,539.153L427.484,539.203L427.457,539.253L427.442,539.28L427.433,539.296C427.408,539.343 427.383,539.389 427.358,539.435L427.433,539.296L427.457,539.253L427.51,539.153L427.534,539.108ZM428.57,536.94C428.585,536.905 428.599,536.871 428.614,536.837C428.628,536.803 428.643,536.769 428.657,536.734L428.57,536.94ZM429.962,535.519C429.985,535.509 430.007,535.499 430.029,535.489L429.828,535.579L429.962,535.519ZM430.193,535.412L430.28,535.37C430.251,535.384 430.222,535.398 430.193,535.412L430.161,535.427L430.095,535.458L430.184,535.417L430.193,535.412ZM430.324,535.348C430.341,535.34 430.356,535.332 430.372,535.324C430.388,535.316 430.404,535.308 430.42,535.3L430.324,535.348ZM430.64,535.185L430.703,535.151C430.682,535.162 430.661,535.174 430.64,535.185L430.625,535.193L430.594,535.21L430.585,535.214L430.548,535.234L430.484,535.267L430.585,535.214L430.606,535.203L430.64,535.185ZM431.266,534.819L431.336,534.774L431.278,534.812L431.266,534.819C431.24,534.835 431.214,534.852 431.188,534.868L431.266,534.819ZM431.451,534.699L431.437,534.708L431.489,534.673L431.451,534.699ZM432.744,533.653L432.805,533.593L432.758,533.639L432.744,533.653L432.733,533.664L432.715,533.682L432.688,533.707L432.671,533.724L432.66,533.734L432.644,533.749L432.618,533.774L432.597,533.793L432.586,533.804L432.572,533.817L432.546,533.841L432.523,533.862L432.511,533.873L432.499,533.884L432.474,533.907L432.447,533.931L432.435,533.941L432.424,533.951L432.401,533.972L432.37,533.998L432.358,534.009L432.349,534.017L432.327,534.036L432.293,534.065L432.252,534.1L432.214,534.131L432.176,534.162L432.135,534.196L432.099,534.225L432.054,534.26L432.022,534.286L431.973,534.324L431.943,534.347L431.89,534.387L431.864,534.407L431.794,534.459L431.784,534.466L431.703,534.525L431.624,534.58C431.596,534.6 431.567,534.62 431.539,534.64L431.624,534.58L431.709,534.521L431.792,534.46L431.806,534.45L431.875,534.399L431.89,534.387L431.956,534.337L431.973,534.324L432.037,534.274L432.054,534.26L432.116,534.211L432.135,534.196L432.195,534.147L432.214,534.131L432.272,534.082L432.293,534.065L432.349,534.017L432.37,533.998L432.424,533.951L432.447,533.931L432.499,533.884L432.523,533.862L432.572,533.817L432.597,533.793L432.644,533.749L432.671,533.724L432.715,533.682L432.744,533.653ZM433.852,532.316L433.842,532.332L433.876,532.281L433.852,532.316ZM434.312,531.545C434.251,531.659 434.189,531.772 434.124,531.882C434.059,531.993 433.992,532.102 433.923,532.209C434.061,531.995 434.191,531.774 434.312,531.545ZM434.754,530.575C434.763,530.553 434.771,530.532 434.78,530.51C434.788,530.488 434.796,530.466 434.804,530.445L434.754,530.575ZM434.876,530.246C434.868,530.268 434.86,530.29 434.852,530.313L434.899,530.18L434.876,530.246ZM434.955,530.011C434.961,529.994 434.966,529.977 434.972,529.96C434.977,529.943 434.982,529.926 434.988,529.909L434.955,530.011ZM438.019,529.594C438.02,529.575 438.021,529.556 438.022,529.537C438.023,529.519 438.024,529.5 438.025,529.481L438.019,529.594ZM438.031,529.241C438.031,529.301 438.03,529.361 438.028,529.421L438.03,529.182L438.031,529.241ZM437.956,528.43C437.968,528.494 437.979,528.558 437.988,528.623C437.997,528.687 438.004,528.752 438.01,528.817C437.998,528.687 437.98,528.558 437.956,528.43ZM437.933,528.314C437.929,528.296 437.925,528.278 437.921,528.261C437.917,528.243 437.913,528.225 437.909,528.208L437.933,528.314ZM437.881,528.098C437.885,528.116 437.89,528.134 437.895,528.153L437.865,528.043L437.881,528.098ZM437.738,527.665L437.743,527.678L437.726,527.637L437.738,527.665ZM437.544,527.241L437.521,527.197C437.529,527.212 437.537,527.226 437.544,527.241L437.56,527.271L437.58,527.31L437.597,527.346L437.61,527.372L437.613,527.379C437.621,527.395 437.629,527.411 437.636,527.428L437.644,527.444C437.652,527.462 437.66,527.48 437.668,527.497L437.644,527.444L437.636,527.428L437.613,527.379L437.605,527.361L437.579,527.309L437.552,527.256L437.544,527.241ZM437.026,526.457C437.093,526.539 437.156,526.622 437.216,526.706C437.275,526.79 437.332,526.875 437.385,526.961C437.279,526.789 437.159,526.621 437.026,526.457ZM437.289,526.177C437.307,526.162 437.325,526.147 437.343,526.132C437.361,526.117 437.379,526.102 437.397,526.087L437.289,526.177ZM437.629,525.875L437.523,525.975C437.559,525.942 437.595,525.908 437.629,525.875ZM438.197,525.222L438.028,525.442C438.087,525.37 438.143,525.297 438.197,525.222ZM438.7,524.31C438.647,524.441 438.588,524.569 438.523,524.694C438.458,524.82 438.386,524.942 438.307,525.062C438.464,524.823 438.595,524.572 438.7,524.31ZM438.953,523.406C438.962,523.356 438.97,523.305 438.977,523.254L438.965,523.333C438.962,523.358 438.958,523.382 438.953,523.406L438.943,523.466L438.93,523.532L438.925,523.559L438.917,523.597L438.909,523.634L438.902,523.663L438.892,523.708L438.887,523.727L438.873,523.784C438.867,523.808 438.86,523.832 438.854,523.855L438.873,523.784L438.875,523.774L438.891,523.712L438.894,523.699L438.907,523.64L438.911,523.626L438.923,523.567L438.926,523.553L438.938,523.492L438.94,523.48L438.953,523.406ZM185.988,481.909C226.656,481.742 267.323,481.909 307.988,482.409C317.412,486.663 319.412,493.163 313.988,501.909C311.934,503.603 309.6,504.77 306.988,505.409C266.321,506.076 225.655,506.076 184.988,505.409C174.031,496.935 174.364,489.101 185.988,481.909ZM736.279,468.878C745.11,468.878 752.279,476.048 752.279,484.878C752.279,493.709 745.11,500.878 736.279,500.878C727.448,500.878 720.279,493.709 720.279,484.878C720.279,476.048 727.448,468.878 736.279,468.878ZM184.988,424.909C263.322,424.742 341.655,424.909 419.988,425.409C428.717,429.261 430.883,435.428 426.488,443.909C424.757,446.026 422.59,447.526 419.988,448.409C341.655,449.076 263.321,449.076 184.988,448.409C174.388,440.534 174.388,432.7 184.988,424.909Z" style="fill:white;"/>
    </g>
</svg>
